<svg width="260" height="260" viewBox="0 0 260 260" fill="none" xmlns="http://www.w3.org/2000/svg">
<rect width="260" height="260" fill="white"/>
<path d="M59.7271 116.543V107.103H56.0951V105.567H65.1831V107.103H61.5191V116.543H59.7271ZM66.612 116.543V104.975H68.276V109.135H68.388C68.5907 108.879 68.82 108.666 69.076 108.495C69.332 108.314 69.62 108.175 69.94 108.079C70.26 107.983 70.612 107.935 70.996 107.935C71.5293 107.935 71.9987 108.031 72.404 108.223C72.8093 108.405 73.124 108.703 73.348 109.119C73.5827 109.535 73.7 110.095 73.7 110.799V116.543H72.036V111.055C72.036 110.735 71.9933 110.469 71.908 110.255C71.8333 110.042 71.7213 109.871 71.572 109.743C71.4227 109.615 71.2467 109.525 71.044 109.471C70.8413 109.418 70.6173 109.391 70.372 109.391C69.988 109.391 69.636 109.482 69.316 109.663C69.0067 109.845 68.756 110.101 68.564 110.431C68.372 110.762 68.276 111.157 68.276 111.615V116.543H66.612ZM75.7839 106.671V104.975H77.4479V106.671H75.7839ZM75.7839 116.543V108.127H77.4479V116.543H75.7839ZM82.7004 116.735C82.1137 116.735 81.5964 116.671 81.1484 116.543C80.7004 116.415 80.327 116.239 80.0284 116.015C79.7297 115.791 79.5004 115.525 79.3404 115.215C79.191 114.895 79.1164 114.543 79.1164 114.159C79.1164 114.106 79.1164 114.058 79.1164 114.015C79.127 113.973 79.1324 113.935 79.1324 113.903H80.7804C80.7804 113.935 80.7804 113.967 80.7804 113.999C80.7804 114.021 80.7804 114.047 80.7804 114.079C80.7804 114.41 80.871 114.677 81.0524 114.879C81.2337 115.071 81.4737 115.21 81.7724 115.295C82.0817 115.37 82.4177 115.407 82.7804 115.407C83.1004 115.407 83.3937 115.37 83.6604 115.295C83.9377 115.21 84.1617 115.087 84.3324 114.927C84.5137 114.767 84.6044 114.565 84.6044 114.319C84.6044 113.999 84.4924 113.754 84.2684 113.583C84.0444 113.413 83.751 113.279 83.3884 113.183C83.0257 113.077 82.647 112.965 82.2524 112.847C81.9004 112.751 81.5484 112.65 81.1964 112.543C80.855 112.426 80.5457 112.277 80.2684 112.095C79.991 111.914 79.767 111.685 79.5964 111.407C79.4257 111.13 79.3404 110.783 79.3404 110.367C79.3404 109.973 79.4257 109.626 79.5964 109.327C79.767 109.029 80.0017 108.778 80.3004 108.575C80.6097 108.373 80.9724 108.218 81.3884 108.111C81.815 108.005 82.279 107.951 82.7804 107.951C83.303 107.951 83.767 108.01 84.1724 108.127C84.5777 108.234 84.919 108.389 85.1964 108.591C85.4844 108.794 85.703 109.039 85.8524 109.327C86.0017 109.605 86.0764 109.903 86.0764 110.223C86.0764 110.287 86.071 110.357 86.0604 110.431C86.0604 110.495 86.0604 110.538 86.0604 110.559H84.4284V110.415C84.4284 110.202 84.3697 110.01 84.2524 109.839C84.135 109.669 83.9484 109.53 83.6924 109.423C83.447 109.317 83.1164 109.263 82.7004 109.263C82.423 109.263 82.1777 109.29 81.9644 109.343C81.751 109.386 81.575 109.45 81.4364 109.535C81.2977 109.621 81.191 109.722 81.1164 109.839C81.0524 109.957 81.0204 110.09 81.0204 110.239C81.0204 110.485 81.1057 110.677 81.2764 110.815C81.4577 110.943 81.6924 111.055 81.9804 111.151C82.2684 111.237 82.5777 111.333 82.9084 111.439C83.2924 111.546 83.6817 111.658 84.0764 111.775C84.471 111.882 84.8337 112.021 85.1644 112.191C85.5057 112.362 85.7777 112.597 85.9804 112.895C86.1937 113.194 86.3004 113.594 86.3004 114.095C86.3004 114.554 86.2097 114.954 86.0284 115.295C85.847 115.637 85.591 115.914 85.2604 116.127C84.9404 116.33 84.5617 116.479 84.1244 116.575C83.687 116.682 83.2124 116.735 82.7004 116.735ZM91.2682 106.671V104.975H92.9322V106.671H91.2682ZM91.2682 116.543V108.127H92.9322V116.543H91.2682ZM98.1847 116.735C97.5981 116.735 97.0807 116.671 96.6327 116.543C96.1847 116.415 95.8114 116.239 95.5127 116.015C95.2141 115.791 94.9847 115.525 94.8247 115.215C94.6754 114.895 94.6007 114.543 94.6007 114.159C94.6007 114.106 94.6007 114.058 94.6007 114.015C94.6114 113.973 94.6167 113.935 94.6167 113.903H96.2647C96.2647 113.935 96.2647 113.967 96.2647 113.999C96.2647 114.021 96.2647 114.047 96.2647 114.079C96.2647 114.41 96.3554 114.677 96.5367 114.879C96.7181 115.071 96.9581 115.21 97.2567 115.295C97.5661 115.37 97.9021 115.407 98.2647 115.407C98.5847 115.407 98.8781 115.37 99.1447 115.295C99.4221 115.21 99.6461 115.087 99.8167 114.927C99.9981 114.767 100.089 114.565 100.089 114.319C100.089 113.999 99.9767 113.754 99.7527 113.583C99.5287 113.413 99.2354 113.279 98.8727 113.183C98.5101 113.077 98.1314 112.965 97.7367 112.847C97.3847 112.751 97.0327 112.65 96.6807 112.543C96.3394 112.426 96.0301 112.277 95.7527 112.095C95.4754 111.914 95.2514 111.685 95.0807 111.407C94.9101 111.13 94.8247 110.783 94.8247 110.367C94.8247 109.973 94.9101 109.626 95.0807 109.327C95.2514 109.029 95.4861 108.778 95.7847 108.575C96.0941 108.373 96.4567 108.218 96.8727 108.111C97.2994 108.005 97.7634 107.951 98.2647 107.951C98.7874 107.951 99.2514 108.01 99.6567 108.127C100.062 108.234 100.403 108.389 100.681 108.591C100.969 108.794 101.187 109.039 101.337 109.327C101.486 109.605 101.561 109.903 101.561 110.223C101.561 110.287 101.555 110.357 101.545 110.431C101.545 110.495 101.545 110.538 101.545 110.559H99.9127V110.415C99.9127 110.202 99.8541 110.01 99.7367 109.839C99.6194 109.669 99.4327 109.53 99.1767 109.423C98.9314 109.317 98.6007 109.263 98.1847 109.263C97.9074 109.263 97.6621 109.29 97.4487 109.343C97.2354 109.386 97.0594 109.45 96.9207 109.535C96.7821 109.621 96.6754 109.722 96.6007 109.839C96.5367 109.957 96.5047 110.09 96.5047 110.239C96.5047 110.485 96.5901 110.677 96.7607 110.815C96.9421 110.943 97.1767 111.055 97.4647 111.151C97.7527 111.237 98.0621 111.333 98.3927 111.439C98.7767 111.546 99.1661 111.658 99.5607 111.775C99.9554 111.882 100.318 112.021 100.649 112.191C100.99 112.362 101.262 112.597 101.465 112.895C101.678 113.194 101.785 113.594 101.785 114.095C101.785 114.554 101.694 114.954 101.513 115.295C101.331 115.637 101.075 115.914 100.745 116.127C100.425 116.33 100.046 116.479 99.6087 116.575C99.1714 116.682 98.6967 116.735 98.1847 116.735ZM108.321 116.543L105.793 108.127H107.521L108.753 112.735C108.817 112.959 108.87 113.194 108.913 113.439C108.966 113.685 109.014 113.903 109.057 114.095C109.099 114.287 109.131 114.421 109.153 114.495H109.249C109.291 114.303 109.339 114.085 109.393 113.839C109.446 113.594 109.494 113.37 109.537 113.167C109.579 112.954 109.611 112.794 109.633 112.687L110.753 108.127H112.545L113.697 112.703C113.739 112.874 113.782 113.071 113.825 113.295C113.878 113.509 113.926 113.722 113.969 113.935C114.022 114.149 114.059 114.335 114.081 114.495H114.177C114.209 114.346 114.246 114.17 114.289 113.967C114.342 113.754 114.395 113.541 114.449 113.327C114.502 113.114 114.55 112.917 114.593 112.735L115.809 108.127H117.393L114.881 116.543H113.153L112.129 112.351C112.086 112.149 112.033 111.914 111.969 111.647C111.905 111.381 111.846 111.114 111.793 110.847C111.739 110.581 111.697 110.346 111.665 110.143H111.569C111.547 110.261 111.515 110.431 111.473 110.655C111.441 110.879 111.393 111.135 111.329 111.423C111.265 111.711 111.19 112.021 111.105 112.351L110.049 116.543H108.321ZM118.596 116.543V104.975H120.26V109.135H120.372C120.575 108.879 120.804 108.666 121.06 108.495C121.316 108.314 121.604 108.175 121.924 108.079C122.244 107.983 122.596 107.935 122.98 107.935C123.514 107.935 123.983 108.031 124.388 108.223C124.794 108.405 125.108 108.703 125.332 109.119C125.567 109.535 125.684 110.095 125.684 110.799V116.543H124.02V111.055C124.02 110.735 123.978 110.469 123.892 110.255C123.818 110.042 123.706 109.871 123.556 109.743C123.407 109.615 123.231 109.525 123.028 109.471C122.826 109.418 122.602 109.391 122.356 109.391C121.972 109.391 121.62 109.482 121.3 109.663C120.991 109.845 120.74 110.101 120.548 110.431C120.356 110.762 120.26 111.157 120.26 111.615V116.543H118.596ZM131.256 116.735C130.392 116.735 129.667 116.581 129.08 116.271C128.504 115.951 128.067 115.466 127.768 114.815C127.47 114.165 127.32 113.338 127.32 112.335C127.32 111.322 127.47 110.495 127.768 109.855C128.067 109.205 128.51 108.725 129.096 108.415C129.683 108.095 130.414 107.935 131.288 107.935C132.088 107.935 132.755 108.09 133.288 108.399C133.832 108.698 134.243 109.157 134.52 109.775C134.798 110.394 134.936 111.173 134.936 112.111V112.751H129.032C129.054 113.349 129.144 113.85 129.304 114.255C129.464 114.65 129.704 114.943 130.024 115.135C130.355 115.317 130.771 115.407 131.272 115.407C131.582 115.407 131.859 115.37 132.104 115.295C132.35 115.21 132.558 115.093 132.728 114.943C132.899 114.783 133.032 114.597 133.128 114.383C133.224 114.159 133.272 113.909 133.272 113.631H134.904C134.904 114.133 134.819 114.575 134.648 114.959C134.478 115.343 134.227 115.669 133.896 115.935C133.576 116.191 133.192 116.389 132.744 116.527C132.296 116.666 131.8 116.735 131.256 116.735ZM129.064 111.535H133.192C133.192 111.119 133.144 110.773 133.048 110.495C132.963 110.207 132.835 109.973 132.664 109.791C132.494 109.61 132.291 109.482 132.056 109.407C131.822 109.322 131.555 109.279 131.256 109.279C130.808 109.279 130.424 109.359 130.104 109.519C129.795 109.679 129.555 109.93 129.384 110.271C129.214 110.602 129.107 111.023 129.064 111.535ZM136.628 116.543V108.127H138.004L138.148 109.487H138.244C138.34 109.221 138.462 108.97 138.612 108.735C138.772 108.501 138.974 108.309 139.22 108.159C139.476 108.01 139.785 107.935 140.148 107.935C140.318 107.935 140.468 107.951 140.596 107.983C140.734 108.015 140.841 108.042 140.916 108.063V109.631H140.356C140.014 109.631 139.71 109.685 139.444 109.791C139.188 109.898 138.969 110.058 138.788 110.271C138.617 110.474 138.489 110.725 138.404 111.023C138.329 111.322 138.292 111.658 138.292 112.031V116.543H136.628ZM145.491 116.735C144.627 116.735 143.901 116.581 143.315 116.271C142.739 115.951 142.301 115.466 142.003 114.815C141.704 114.165 141.555 113.338 141.555 112.335C141.555 111.322 141.704 110.495 142.003 109.855C142.301 109.205 142.744 108.725 143.331 108.415C143.917 108.095 144.648 107.935 145.523 107.935C146.323 107.935 146.989 108.09 147.523 108.399C148.067 108.698 148.477 109.157 148.755 109.775C149.032 110.394 149.171 111.173 149.171 112.111V112.751H143.267C143.288 113.349 143.379 113.85 143.539 114.255C143.699 114.65 143.939 114.943 144.259 115.135C144.589 115.317 145.005 115.407 145.507 115.407C145.816 115.407 146.093 115.37 146.339 115.295C146.584 115.21 146.792 115.093 146.963 114.943C147.133 114.783 147.267 114.597 147.363 114.383C147.459 114.159 147.507 113.909 147.507 113.631H149.139C149.139 114.133 149.053 114.575 148.883 114.959C148.712 115.343 148.461 115.669 148.131 115.935C147.811 116.191 147.427 116.389 146.979 116.527C146.531 116.666 146.035 116.735 145.491 116.735ZM143.299 111.535H147.427C147.427 111.119 147.379 110.773 147.283 110.495C147.197 110.207 147.069 109.973 146.899 109.791C146.728 109.61 146.525 109.482 146.291 109.407C146.056 109.322 145.789 109.279 145.491 109.279C145.043 109.279 144.659 109.359 144.339 109.519C144.029 109.679 143.789 109.93 143.619 110.271C143.448 110.602 143.341 111.023 143.299 111.535ZM154.367 116.543V105.567H156.159V116.543H154.367ZM158.646 109.999L158.406 107.919V105.567H160.15V107.919L159.83 109.999H158.646ZM162.159 116.543V108.127H163.535L163.679 109.327H163.791C163.983 109.018 164.202 108.762 164.447 108.559C164.703 108.357 164.986 108.202 165.295 108.095C165.615 107.989 165.956 107.935 166.319 107.935C166.842 107.935 167.295 108.042 167.679 108.255C168.074 108.469 168.372 108.826 168.575 109.327H168.687C168.879 109.029 169.103 108.778 169.359 108.575C169.615 108.362 169.903 108.202 170.223 108.095C170.554 107.989 170.906 107.935 171.279 107.935C171.78 107.935 172.223 108.026 172.607 108.207C172.991 108.378 173.295 108.671 173.519 109.087C173.743 109.493 173.855 110.037 173.855 110.719V116.543H172.191V111.023C172.191 110.703 172.154 110.442 172.079 110.239C172.004 110.026 171.903 109.861 171.775 109.743C171.647 109.615 171.492 109.525 171.311 109.471C171.13 109.418 170.932 109.391 170.719 109.391C170.367 109.391 170.052 109.487 169.775 109.679C169.498 109.861 169.274 110.117 169.103 110.447C168.932 110.778 168.847 111.167 168.847 111.615V116.543H167.183V111.023C167.183 110.703 167.146 110.442 167.071 110.239C166.996 110.026 166.895 109.861 166.767 109.743C166.639 109.615 166.484 109.525 166.303 109.471C166.122 109.418 165.93 109.391 165.727 109.391C165.375 109.391 165.055 109.487 164.767 109.679C164.479 109.861 164.25 110.117 164.079 110.447C163.908 110.778 163.823 111.167 163.823 111.615V116.543H162.159ZM179.206 116.543V108.127H180.582L180.726 109.327H180.838C181.03 109.018 181.248 108.762 181.494 108.559C181.75 108.357 182.032 108.202 182.342 108.095C182.662 107.989 183.003 107.935 183.366 107.935C183.888 107.935 184.342 108.042 184.726 108.255C185.12 108.469 185.419 108.826 185.622 109.327H185.734C185.926 109.029 186.15 108.778 186.406 108.575C186.662 108.362 186.95 108.202 187.27 108.095C187.6 107.989 187.952 107.935 188.326 107.935C188.827 107.935 189.27 108.026 189.654 108.207C190.038 108.378 190.342 108.671 190.566 109.087C190.79 109.493 190.902 110.037 190.902 110.719V116.543H189.238V111.023C189.238 110.703 189.2 110.442 189.126 110.239C189.051 110.026 188.95 109.861 188.822 109.743C188.694 109.615 188.539 109.525 188.358 109.471C188.176 109.418 187.979 109.391 187.766 109.391C187.414 109.391 187.099 109.487 186.822 109.679C186.544 109.861 186.32 110.117 186.15 110.447C185.979 110.778 185.894 111.167 185.894 111.615V116.543H184.23V111.023C184.23 110.703 184.192 110.442 184.118 110.239C184.043 110.026 183.942 109.861 183.814 109.743C183.686 109.615 183.531 109.525 183.35 109.471C183.168 109.418 182.976 109.391 182.774 109.391C182.422 109.391 182.102 109.487 181.814 109.679C181.526 109.861 181.296 110.117 181.126 110.447C180.955 110.778 180.87 111.167 180.87 111.615V116.543H179.206ZM196.555 116.735C195.681 116.735 194.939 116.581 194.331 116.271C193.734 115.951 193.281 115.466 192.971 114.815C192.673 114.165 192.523 113.338 192.523 112.335C192.523 111.322 192.673 110.495 192.971 109.855C193.281 109.205 193.734 108.725 194.331 108.415C194.939 108.095 195.681 107.935 196.555 107.935C197.451 107.935 198.198 108.095 198.795 108.415C199.393 108.725 199.841 109.205 200.139 109.855C200.449 110.495 200.603 111.322 200.603 112.335C200.603 113.338 200.449 114.165 200.139 114.815C199.841 115.466 199.393 115.951 198.795 116.271C198.198 116.581 197.451 116.735 196.555 116.735ZM196.555 115.359C197.089 115.359 197.526 115.258 197.867 115.055C198.209 114.842 198.459 114.522 198.619 114.095C198.79 113.669 198.875 113.13 198.875 112.479V112.191C198.875 111.541 198.79 111.002 198.619 110.575C198.459 110.149 198.209 109.834 197.867 109.631C197.526 109.418 197.089 109.311 196.555 109.311C196.033 109.311 195.601 109.418 195.259 109.631C194.918 109.834 194.662 110.149 194.491 110.575C194.331 111.002 194.251 111.541 194.251 112.191V112.479C194.251 113.13 194.331 113.669 194.491 114.095C194.662 114.522 194.918 114.842 195.259 115.055C195.601 115.258 196.033 115.359 196.555 115.359ZM205.403 116.735C204.817 116.735 204.299 116.671 203.851 116.543C203.403 116.415 203.03 116.239 202.731 116.015C202.433 115.791 202.203 115.525 202.043 115.215C201.894 114.895 201.819 114.543 201.819 114.159C201.819 114.106 201.819 114.058 201.819 114.015C201.83 113.973 201.835 113.935 201.835 113.903H203.483C203.483 113.935 203.483 113.967 203.483 113.999C203.483 114.021 203.483 114.047 203.483 114.079C203.483 114.41 203.574 114.677 203.755 114.879C203.937 115.071 204.177 115.21 204.475 115.295C204.785 115.37 205.121 115.407 205.483 115.407C205.803 115.407 206.097 115.37 206.363 115.295C206.641 115.21 206.865 115.087 207.035 114.927C207.217 114.767 207.307 114.565 207.307 114.319C207.307 113.999 207.195 113.754 206.971 113.583C206.747 113.413 206.454 113.279 206.091 113.183C205.729 113.077 205.35 112.965 204.955 112.847C204.603 112.751 204.251 112.65 203.899 112.543C203.558 112.426 203.249 112.277 202.971 112.095C202.694 111.914 202.47 111.685 202.299 111.407C202.129 111.13 202.043 110.783 202.043 110.367C202.043 109.973 202.129 109.626 202.299 109.327C202.47 109.029 202.705 108.778 203.003 108.575C203.313 108.373 203.675 108.218 204.091 108.111C204.518 108.005 204.982 107.951 205.483 107.951C206.006 107.951 206.47 108.01 206.875 108.127C207.281 108.234 207.622 108.389 207.899 108.591C208.187 108.794 208.406 109.039 208.555 109.327C208.705 109.605 208.779 109.903 208.779 110.223C208.779 110.287 208.774 110.357 208.763 110.431C208.763 110.495 208.763 110.538 208.763 110.559H207.131V110.415C207.131 110.202 207.073 110.01 206.955 109.839C206.838 109.669 206.651 109.53 206.395 109.423C206.15 109.317 205.819 109.263 205.403 109.263C205.126 109.263 204.881 109.29 204.667 109.343C204.454 109.386 204.278 109.45 204.139 109.535C204.001 109.621 203.894 109.722 203.819 109.839C203.755 109.957 203.723 110.09 203.723 110.239C203.723 110.485 203.809 110.677 203.979 110.815C204.161 110.943 204.395 111.055 204.683 111.151C204.971 111.237 205.281 111.333 205.611 111.439C205.995 111.546 206.385 111.658 206.779 111.775C207.174 111.882 207.537 112.021 207.867 112.191C208.209 112.362 208.481 112.597 208.683 112.895C208.897 113.194 209.003 113.594 209.003 114.095C209.003 114.554 208.913 114.954 208.731 115.295C208.55 115.637 208.294 115.914 207.963 116.127C207.643 116.33 207.265 116.479 206.827 116.575C206.39 116.682 205.915 116.735 205.403 116.735ZM212.786 116.735C212.306 116.735 211.927 116.645 211.65 116.463C211.383 116.271 211.191 116.031 211.074 115.743C210.967 115.445 210.914 115.13 210.914 114.799V109.503H209.858V108.127H210.946L211.25 105.775H212.578V108.127H214.098V109.503H212.578V114.607C212.578 114.853 212.631 115.039 212.738 115.167C212.845 115.295 213.021 115.359 213.266 115.359H214.098V116.479C213.991 116.522 213.858 116.559 213.698 116.591C213.549 116.634 213.394 116.666 213.234 116.687C213.074 116.719 212.925 116.735 212.786 116.735ZM104.058 136.543L108.362 125.567H110.65L114.97 136.543H113.05L112.074 133.999H106.874L105.898 136.543H104.058ZM107.45 132.479H111.482L110.25 129.263C110.218 129.167 110.17 129.034 110.106 128.863C110.042 128.693 109.973 128.506 109.898 128.303C109.834 128.101 109.765 127.898 109.69 127.695C109.626 127.482 109.567 127.29 109.514 127.119H109.418C109.354 127.322 109.274 127.562 109.178 127.839C109.082 128.117 108.986 128.383 108.89 128.639C108.805 128.895 108.73 129.103 108.666 129.263L107.45 132.479ZM120.916 136.735C119.796 136.735 118.841 136.538 118.052 136.143C117.273 135.738 116.676 135.114 116.26 134.271C115.844 133.429 115.636 132.357 115.636 131.055C115.636 129.135 116.1 127.711 117.028 126.783C117.967 125.845 119.268 125.375 120.932 125.375C121.849 125.375 122.671 125.53 123.396 125.839C124.132 126.149 124.708 126.613 125.124 127.231C125.551 127.839 125.764 128.618 125.764 129.567H123.94C123.94 128.981 123.817 128.49 123.572 128.095C123.327 127.701 122.975 127.402 122.516 127.199C122.068 126.997 121.545 126.895 120.948 126.895C120.201 126.895 119.567 127.045 119.044 127.343C118.532 127.631 118.143 128.069 117.876 128.655C117.62 129.242 117.492 129.989 117.492 130.895V131.247C117.492 132.154 117.62 132.901 117.876 133.487C118.143 134.074 118.532 134.511 119.044 134.799C119.556 135.077 120.191 135.215 120.948 135.215C121.567 135.215 122.105 135.119 122.564 134.927C123.023 134.725 123.375 134.426 123.62 134.031C123.876 133.637 124.004 133.146 124.004 132.559H125.764C125.764 133.509 125.551 134.293 125.124 134.911C124.708 135.53 124.132 135.989 123.396 136.287C122.671 136.586 121.844 136.735 120.916 136.735ZM130.133 136.543V127.103H126.501V125.567H135.589V127.103H131.925V136.543H130.133ZM137.242 136.543V125.567H139.034V136.543H137.242ZM144.545 136.543L140.497 125.567H142.433L145.153 133.231C145.206 133.359 145.26 133.509 145.313 133.679C145.366 133.85 145.42 134.015 145.473 134.175C145.526 134.325 145.574 134.458 145.617 134.575H145.697C145.74 134.458 145.788 134.325 145.841 134.175C145.894 134.026 145.948 133.871 146.001 133.711C146.054 133.551 146.108 133.397 146.161 133.247L148.849 125.567H150.721L146.657 136.543H144.545ZM152.18 136.543V125.567H160.692V127.103H153.972V130.159H159.988V131.695H153.972V135.007H160.788V136.543H152.18ZM163.073 136.543V134.687H164.849V136.543H163.073Z" fill="#1E1E1E"/>
</svg>
